<svg width="471" height="381" viewBox="0 0 471 381" fill="none" xmlns="http://www.w3.org/2000/svg">
<path d="M400.35 54.4286C400.35 24.4929 379.155 0 353.25 0H282.6V54.4286H353.25V126.546L271.296 244.929H188.4V108.857H94.2C42.1545 108.857 0 157.571 0 217.714V299.357H47.1C47.1 344.533 78.657 381 117.75 381C156.843 381 188.4 344.533 188.4 299.357H293.904L400.35 145.596V54.4286ZM117.75 326.571C104.798 326.571 94.2 314.325 94.2 299.357H141.3C141.3 314.325 130.703 326.571 117.75 326.571Z" fill="#333333"/>
<path d="M188.4 27.2155H70.6498V81.6434H188.4V27.2155Z" fill="#333333"/>
<path d="M400.35 217.716C361.257 217.716 329.7 254.182 329.7 299.358C329.7 344.533 361.257 381 400.35 381C439.443 381 471 344.533 471 299.358C471 254.182 439.443 217.716 400.35 217.716ZM400.35 326.572C387.397 326.572 376.8 314.326 376.8 299.358C376.8 284.39 387.397 272.144 400.35 272.144C413.302 272.144 423.9 284.39 423.9 299.358C423.9 314.326 413.302 326.572 400.35 326.572Z" fill="#333333"/>
</svg>
